<svg xmlns="http://www.w3.org/2000/svg" width="64" height="64" viewBox="0 0 64 64" fill="none">
	<defs>
		<linearGradient id="bg" x1="12" y1="10" x2="54" y2="56" gradientUnits="userSpaceOnUse">
			<stop offset="0" stop-color="#d79a89" />
			<stop offset="1" stop-color="#b7a2cf" />
		</linearGradient>
	</defs>
	<rect x="6" y="6" width="52" height="52" rx="14" fill="url(#bg)" />
	<g fill="#fff">
		<rect x="18.7" y="18.2" width="3.8" height="26.8" rx="1.9" transform="rotate(-45 18.7 18.2)" />
		<rect x="42.2" y="15.5" width="3.8" height="26.8" rx="1.9" transform="rotate(45 42.2 15.5)" />
		<circle cx="19.2" cy="21" r="2.6" />
		<circle cx="22.8" cy="17.4" r="2.6" />
		<circle cx="44.8" cy="21" r="2.6" />
		<circle cx="41.2" cy="17.4" r="2.6" />
		<circle cx="19.2" cy="43" r="2.6" />
		<circle cx="22.8" cy="46.6" r="2.6" />
		<circle cx="44.8" cy="43" r="2.6" />
		<circle cx="41.2" cy="46.6" r="2.6" />
	</g>
	<circle cx="32" cy="32" r="12.2" fill="url(#bg)" />
	<circle cx="32" cy="32" r="11.8" stroke="#fff" stroke-width="3.4" />
	<path d="M20.3 32H43.7" stroke="#fff" stroke-width="3.4" stroke-linecap="round" />
	<circle cx="32" cy="32" r="4.4" fill="url(#bg)" stroke="#fff" stroke-width="2.7" />
	<circle cx="32" cy="32" r="1.65" fill="#fff" />
</svg>