<svg xmlns="http://www.w3.org/2000/svg" width="48" height="48" viewBox="0 0 48 48" fill="none">
	<defs>
		<linearGradient id="bg" x1="8" y1="8" x2="40" y2="40" gradientUnits="userSpaceOnUse">
			<stop offset="0%" stop-color="#e08860" />
			<stop offset="100%" stop-color="#b8a4c8" />
		</linearGradient>
		<clipPath id="ball-clip">
			<circle cx="24.2" cy="24" r="10.2" />
		</clipPath>
	</defs>
	<rect x="4" y="4" width="40" height="40" rx="10" fill="url(#bg)" />
	<rect x="12.8" y="11.5" width="16.2" height="20" rx="3" transform="rotate(-10 20.9 21.5)" fill="rgba(255,255,255,0.26)" />
	<rect x="15.4" y="10.2" width="16.2" height="20" rx="3" transform="rotate(10 23.5 20.2)" fill="#fff8f2" fill-opacity="0.92" />
	<g clip-path="url(#ball-clip)">
		<rect x="14" y="13.8" width="20.4" height="10.2" fill="#e08860" />
		<rect x="14" y="24" width="20.4" height="10.2" fill="#fff8f2" />
	</g>
	<circle cx="24.2" cy="24" r="10.2" fill="none" stroke="#4a3f38" stroke-width="1.6" />
	<rect x="13.7" y="22.6" width="21" height="2.8" rx="1.4" fill="#4a3f38" />
	<circle cx="24.2" cy="24" r="3.2" fill="#fff8f2" stroke="#4a3f38" stroke-width="1.4" />
	<circle cx="24.2" cy="24" r="1.45" fill="#e08860" />
	<path d="M31.85 13.9l1 2.3 2.3 1-2.3 1-1 2.3-1-2.3-2.3-1 2.3-1z" fill="#fff8f2" />
</svg>